<?xml version="1.0" encoding="iso-8859-1"?>
<!-- Generator: Adobe Illustrator 19.0.0, SVG Export Plug-In . SVG Version: 6.00 Build 0)  -->
<svg version="1.1" id="Capa_1" xmlns="http://www.w3.org/2000/svg" xmlns:xlink="http://www.w3.org/1999/xlink" x="0px" y="0px"
	 viewBox="0 0 480 480" style="enable-background:new 0 0 480 480;" xml:space="preserve">
<g>
	<g>
		<path d="M208,56V40c0-22.056-17.944-40-40-40H40C17.944,0,0,17.944,0,40v64c0,22.056,17.944,40,40,40h28.184l-9.6,24H40v16h24h32
			v16h16v-16h32h24v-16h-18.584l-9.6-24H168c7.448,0,14.352-2.176,20.328-5.744l3.984,7.632l14.184-7.408l-5.944-11.392
			C205.2,120.552,208,112.616,208,104V72h16V56H208z M75.816,168l9.6-24h37.168l9.6,24H75.816z M168,128h-40H80H40
			c-13.232,0-24-10.768-24-24h176C192,117.232,181.232,128,168,128z M192,88H16V40c0-13.232,10.768-24,24-24h128
			c13.232,0,24,10.768,24,24V88z"/>
	</g>
</g>
<g>
	<g>
		<path d="M440,0H312c-22.056,0-40,17.944-40,40v16h-32v16h32v32c0,8.616,2.8,16.552,7.448,23.088l-5.944,11.392l14.184,7.408
			l3.984-7.632c5.976,3.56,12.88,5.744,20.328,5.744h28.184l-9.6,24H312v16h24h32v16h16v-16h32h24v-16h-18.584l-9.6-24H440
			c22.056,0,40-17.944,40-40V40C480,17.944,462.056,0,440,0z M347.816,168l9.6-24h37.168l9.6,24H347.816z M440,128h-40h-48h-40
			c-13.232,0-24-10.768-24-24h176C464,117.232,453.232,128,440,128z M464,88H288V40c0-13.232,10.768-24,24-24h128
			c13.232,0,24,10.768,24,24V88z"/>
	</g>
</g>
<g>
	<g>
		<path d="M208,352v-16c0-8.616-2.8-16.552-7.456-23.088l5.736-10.992l-14.184-7.4l-3.768,7.216
			c-5.976-3.56-12.88-5.744-20.328-5.744h-56v-16H96v16H40c-22.056,0-40,17.944-40,40v64C0,422.056,17.944,440,40,440h28.184
			l-9.6,24H40v16h24h80h24v-16h-18.584l-9.6-24H168c22.056,0,40-17.944,40-40v-32h32v-16H208z M75.816,464l9.6-24h37.168l9.6,24
			H75.816z M168,424h-40H80H40c-13.232,0-24-10.768-24-24h176C192,413.232,181.232,424,168,424z M192,384H16v-48
			c0-13.232,10.768-24,24-24h128c13.232,0,24,10.768,24,24V384z"/>
	</g>
</g>
<g>
	<g>
		<path d="M440,296h-56v-16h-16v16h-56c-7.448,0-14.352,2.184-20.328,5.744l-3.768-7.216l-14.184,7.4l5.736,10.992
			C274.8,319.448,272,327.384,272,336v16h-16v16h16v32c0,22.056,17.944,40,40,40h28.184l-9.6,24H312v16h24h80h24v-16h-18.584
			l-9.6-24H440c22.056,0,40-17.944,40-40v-64C480,313.944,462.056,296,440,296z M347.816,464l9.6-24h37.168l9.6,24H347.816z
			 M440,424h-40h-48h-40c-13.232,0-24-10.768-24-24h176C464,413.232,453.232,424,440,424z M464,384H288v-48
			c0-13.232,10.768-24,24-24h128c13.232,0,24,10.768,24,24V384z"/>
	</g>
</g>
<g>
	<g>
		<rect x="217.276" y="183.883" transform="matrix(0.8866 -0.4625 0.4625 0.8866 -63.2045 125.9478)" width="16" height="16"/>
	</g>
</g>
<g>
	<g>
		<rect x="261.716" y="268.989" transform="matrix(0.8866 -0.4625 0.4625 0.8866 -97.5281 156.1526)" width="16" height="16"/>
	</g>
</g>
<g>
	<g>
		<rect x="246.909" y="240.64" transform="matrix(0.8865 -0.4627 0.4627 0.8865 -86.118 146.1656)" width="16" height="16"/>
	</g>
</g>
<g>
	<g>
		<polygon points="249.024,220 250.688,216.816 246.12,214.432 243.504,209.408 240,211.24 236.496,209.408 233.88,214.432 
			229.312,216.816 230.976,220 229.096,223.592 234.256,226.288 236.712,231 240,229.288 243.288,231 245.744,226.288 
			250.904,223.592 		"/>
	</g>
</g>
<g>
	<g>
		<rect x="202.489" y="155.514" transform="matrix(0.8865 -0.4627 0.4627 0.8865 -51.7707 115.9512)" width="16" height="16"/>
	</g>
</g>
<g>
	<g>
		<rect x="202.298" y="268.885" transform="matrix(0.4625 -0.8866 0.8866 0.4625 -132.4569 335.2761)" width="16" height="16"/>
	</g>
</g>
<g>
	<g>
		
			<rect x="217.045" y="240.596" transform="matrix(0.4628 -0.8865 0.8865 0.4628 -99.4753 333.0467)" width="16.001" height="16.001"/>
	</g>
</g>
<g>
	<g>
		<rect x="246.668" y="183.831" transform="matrix(0.4624 -0.8867 0.8867 0.4624 -33.1795 328.9392)" width="16" height="16"/>
	</g>
</g>
<g>
	<g>
		<rect x="261.461" y="155.44" transform="matrix(0.4628 -0.8865 0.8865 0.4628 -0.1254 326.6726)" width="16.001" height="16"/>
	</g>
</g>
<g>
	<g>
		<rect x="96" y="248" width="16" height="16"/>
	</g>
</g>
<g>
	<g>
		<rect x="96" y="216" width="16" height="16"/>
	</g>
</g>
<g>
	<g>
		<rect x="368" y="248" width="16" height="16"/>
	</g>
</g>
<g>
	<g>
		<rect x="368" y="216" width="16" height="16"/>
	</g>
</g>
<g>
</g>
<g>
</g>
<g>
</g>
<g>
</g>
<g>
</g>
<g>
</g>
<g>
</g>
<g>
</g>
<g>
</g>
<g>
</g>
<g>
</g>
<g>
</g>
<g>
</g>
<g>
</g>
<g>
</g>
</svg>
