<?xml version="1.0" encoding="iso-8859-1"?>
<!-- Generator: Adobe Illustrator 19.0.0, SVG Export Plug-In . SVG Version: 6.00 Build 0)  -->
<svg version="1.1" id="Capa_1" xmlns="http://www.w3.org/2000/svg" xmlns:xlink="http://www.w3.org/1999/xlink" x="0px" y="0px"
	 viewBox="0 0 480 480" style="enable-background:new 0 0 480 480;" xml:space="preserve">
<g>
	<g>
		<path d="M240,176c-35.288,0-64,28.712-64,64c0,35.288,28.712,64,64,64c35.288,0,64-28.712,64-64C304,204.712,275.288,176,240,176z
			 M240,288c-26.472,0-48-21.528-48-48s21.528-48,48-48s48,21.528,48,48S266.472,288,240,288z"/>
	</g>
</g>
<g>
	<g>
		<path d="M360,296v-48h40.808c3.72,18.232,19.872,32,39.192,32c22.056,0,40-17.944,40-40c0-22.056-17.944-40-40-40
			c-19.312,0-35.472,13.768-39.192,32H360v-48c0-2.864-1.536-5.52-4.032-6.944l-26.544-15.168l56.552-56.552
			C392.304,109.528,399.864,112,408,112c22.056,0,40-17.944,40-40c0-22.056-17.944-40-40-40c-22.056,0-40,17.944-40,40
			c0,8.136,2.472,15.696,6.664,22.024l-59.64,59.64L248,115.36V79.192c18.232-3.72,32-19.872,32-39.192c0-22.056-17.944-40-40-40
			c-22.056,0-40,17.944-40,40c0,19.312,13.768,35.472,32,39.192v36.168l-67.024,38.304l-59.64-59.64
			C109.528,87.696,112,80.136,112,72c0-22.056-17.944-40-40-40c-22.056,0-40,17.944-40,40c0,22.056,17.944,40,40,40
			c8.136,0,15.696-2.472,22.024-6.664l56.552,56.552l-26.544,15.168C121.536,178.48,120,181.136,120,184v48H79.192
			c-3.72-18.232-19.88-32-39.192-32c-22.056,0-40,17.944-40,40c0,22.056,17.944,40,40,40c19.312,0,35.472-13.768,39.192-32H120v48
			c0,2.864,1.536,5.52,4.032,6.944l26.544,15.168l-56.552,56.552C87.696,370.472,80.136,368,72,368c-22.056,0-40,17.944-40,40
			c0,22.056,17.944,40,40,40c22.056,0,40-17.944,40-40c0-8.136-2.472-15.696-6.664-22.024l59.64-59.64L232,364.64v36.168
			c-18.232,3.72-32,19.872-32,39.192c0,22.056,17.944,40,40,40c22.056,0,40-17.944,40-40c0-19.312-13.768-35.472-32-39.192V364.64
			l67.024-38.304l59.64,59.64C370.472,392.304,368,399.864,368,408c0,22.056,17.944,40,40,40c22.056,0,40-17.944,40-40
			c0-22.056-17.944-40-40-40c-8.136,0-15.696,2.472-22.024,6.664l-56.552-56.552l26.544-15.168C358.464,301.52,360,298.864,360,296z
			 M440,216c13.232,0,24,10.768,24,24s-10.768,24-24,24s-24-10.768-24-24S426.768,216,440,216z M408,48c13.232,0,24,10.768,24,24
			s-10.768,24-24,24s-24-10.768-24-24S394.768,48,408,48z M72,96c-13.232,0-24-10.768-24-24s10.768-24,24-24s24,10.768,24,24
			S85.232,96,72,96z M40,264c-13.232,0-24-10.768-24-24s10.768-24,24-24s24,10.768,24,24S53.232,264,40,264z M72,432
			c-13.232,0-24-10.768-24-24s10.768-24,24-24s24,10.768,24,24S85.232,432,72,432z M408,384c13.232,0,24,10.768,24,24
			s-10.768,24-24,24s-24-10.768-24-24S394.768,384,408,384z M216,40c0-13.232,10.768-24,24-24s24,10.768,24,24s-10.768,24-24,24
			S216,53.232,216,40z M264,440c0,13.232-10.768,24-24,24s-24-10.768-24-24s10.768-24,24-24S264,426.768,264,440z M344,291.36
			l-104,59.432L136,291.36V188.64l104-59.432l104,59.432V291.36z"/>
	</g>
</g>
<g>
</g>
<g>
</g>
<g>
</g>
<g>
</g>
<g>
</g>
<g>
</g>
<g>
</g>
<g>
</g>
<g>
</g>
<g>
</g>
<g>
</g>
<g>
</g>
<g>
</g>
<g>
</g>
<g>
</g>
</svg>
