<?xml version="1.0" encoding="iso-8859-1"?>
<!-- Generator: Adobe Illustrator 19.0.0, SVG Export Plug-In . SVG Version: 6.00 Build 0)  -->
<svg version="1.1" id="Capa_1" xmlns="http://www.w3.org/2000/svg" xmlns:xlink="http://www.w3.org/1999/xlink" x="0px" y="0px"
	 viewBox="0 0 480 480" style="enable-background:new 0 0 480 480;" xml:space="preserve">
<g>
	<g>
		<path d="M477.072,1.811c-1.848-1.512-4.28-2.104-6.64-1.656c-52.048,10.408-104.816,10.408-156.856,0
			c-2.344-0.456-4.792,0.144-6.64,1.656C305.08,3.331,304,5.595,304,7.995v48H40c-22.056,0-40,17.944-40,40v240
			c0,22.056,17.944,40,40,40h150.024l-12.448,56H136c-4.424,0-8,3.576-8,8c0,22.056,17.944,40,40,40h144c22.056,0,40-17.944,40-40
			c0-4.424-3.576-8-8-8h-41.584l-12.448-56H440c22.056,0,40-17.944,40-40V98.835V7.995C480,5.595,478.92,3.331,477.072,1.811z
			 M296,447.995h38.632c-3.304,9.312-12.2,16-22.632,16H168c-10.432,0-19.328-6.688-22.632-16H184H296z M193.976,431.995l12.44-56
			h67.168l12.44,56H193.976z M464,335.995c0,13.232-10.768,24-24,24H280h-80H40c-13.232,0-24-10.768-24-24v-24h72h304h72V335.995z
			 M464,295.995h-64v-96h-16v96H96v-128h224v-16h-96v-48h64v-16H88c-4.424,0-8,3.576-8,8v200H16v-200c0-13.232,10.768-24,24-24h264
			v26.84c0,20.864,10.2,40.472,27.296,52.432l56.12,39.28c1.376,0.96,2.984,1.448,4.584,1.448c1.6,0,3.208-0.488,4.584-1.448
			l56.12-39.28c2.112-1.48,4.12-3.08,6.016-4.776c0.784-0.704,1.472-1.496,2.216-2.232c1.032-1.024,2.104-2.008,3.064-3.096V295.995
			z M96,151.995v-48h112v48H96z M464,98.835c0,15.648-7.648,30.352-20.472,39.32L392,174.227l-51.528-36.072
			C327.648,129.187,320,114.491,320,98.835v-34.84v-46.36c47.832,8.44,96.168,8.44,144,0V98.835z"/>
	</g>
</g>
<g>
	<g>
		<path d="M426.344,58.339L384,100.683l-18.344-18.344l-11.312,11.312l24,24c1.56,1.56,3.608,2.344,5.656,2.344
			c2.048,0,4.096-0.784,5.656-2.344l48-48L426.344,58.339z"/>
	</g>
</g>
<g>
	<g>
		<rect x="112" y="119.995" width="16" height="16"/>
	</g>
</g>
<g>
	<g>
		<rect x="144" y="119.995" width="16" height="16"/>
	</g>
</g>
<g>
	<g>
		<rect x="176" y="119.995" width="16" height="16"/>
	</g>
</g>
<g>
	<g>
		<path d="M192,191.995h-64c-4.424,0-8,3.576-8,8v64c0,4.424,3.576,8,8,8h64c4.424,0,8-3.576,8-8v-64
			C200,195.571,196.424,191.995,192,191.995z M184,255.995h-48v-48h48V255.995z"/>
	</g>
</g>
<g>
	<g>
		<rect x="240" y="191.995" width="112" height="16"/>
	</g>
</g>
<g>
	<g>
		<rect x="240" y="223.995" width="112" height="16"/>
	</g>
</g>
<g>
	<g>
		<rect x="240" y="255.995" width="80" height="16"/>
	</g>
</g>
<g>
	<g>
		<rect x="336" y="255.995" width="16" height="16"/>
	</g>
</g>
<g>
</g>
<g>
</g>
<g>
</g>
<g>
</g>
<g>
</g>
<g>
</g>
<g>
</g>
<g>
</g>
<g>
</g>
<g>
</g>
<g>
</g>
<g>
</g>
<g>
</g>
<g>
</g>
<g>
</g>
</svg>
