<?xml version="1.0" encoding="iso-8859-1"?>
<!-- Generator: Adobe Illustrator 19.0.0, SVG Export Plug-In . SVG Version: 6.00 Build 0)  -->
<svg version="1.1" id="Capa_1" xmlns="http://www.w3.org/2000/svg" xmlns:xlink="http://www.w3.org/1999/xlink" x="0px" y="0px"
	 viewBox="0 0 480 480" style="enable-background:new 0 0 480 480;" xml:space="preserve">
<g>
	<g>
		<path d="M205.656,42.344l-32-32l-11.312,11.312L180.688,40H112V16c0-4.424-3.584-8-8-8H8c-4.416,0-8,3.576-8,8v64
			c0,4.424,3.584,8,8,8h96c4.416,0,8-3.576,8-8V56h68.688l-18.344,18.344l11.312,11.312l32-32C207.216,52.096,208,50.048,208,48
			S207.216,43.904,205.656,42.344z M96,72H16V24h80V72z"/>
	</g>
</g>
<g>
	<g>
		<path d="M472,8H216c-4.416,0-8,3.576-8,8v32v32c0,4.424,3.584,8,8,8h224c22.056,0,40-17.944,40-40V16C480,11.576,476.416,8,472,8z
			 M464,48c0,13.232-10.768,24-24,24H224V24h240V48z"/>
	</g>
</g>
<g>
	<g>
		<path d="M205.656,170.344l-32-32l-11.312,11.312L180.688,168H112v-24c0-4.424-3.584-8-8-8H8c-4.416,0-8,3.576-8,8v64
			c0,4.424,3.584,8,8,8h96c4.416,0,8-3.576,8-8v-24h68.688l-18.344,18.344l11.312,11.312l32-32c1.56-1.56,2.344-3.608,2.344-5.656
			C208,173.952,207.216,171.904,205.656,170.344z M96,200H16v-48h80V200z"/>
	</g>
</g>
<g>
	<g>
		<path d="M472,136H216c-4.416,0-8,3.576-8,8v32v32c0,4.424,3.584,8,8,8h224c22.056,0,40-17.944,40-40v-32
			C480,139.576,476.416,136,472,136z M464,176c0,13.232-10.768,24-24,24H224v-48h240V176z"/>
	</g>
</g>
<g>
	<g>
		<path d="M205.656,298.344l-32-32l-11.312,11.312L180.688,296H112v-24c0-4.424-3.584-8-8-8H8c-4.416,0-8,3.576-8,8v64
			c0,4.424,3.584,8,8,8h96c4.416,0,8-3.576,8-8v-24h68.688l-18.344,18.344l11.312,11.312l32-32c1.56-1.56,2.344-3.608,2.344-5.656
			C208,301.952,207.216,299.904,205.656,298.344z M96,328H16v-48h80V328z"/>
	</g>
</g>
<g>
	<g>
		<path d="M472,264H216c-4.416,0-8,3.576-8,8v32v32c0,4.424,3.584,8,8,8h224c22.056,0,40-17.944,40-40v-32
			C480,267.576,476.416,264,472,264z M464,304c0,13.232-10.768,24-24,24H224v-48h240V304z"/>
	</g>
</g>
<g>
	<g>
		<path d="M205.656,426.344l-32-32l-11.312,11.312L180.688,424H112v-24c0-4.424-3.584-8-8-8H8c-4.416,0-8,3.576-8,8v64
			c0,4.424,3.584,8,8,8h96c4.416,0,8-3.576,8-8v-24h68.688l-18.344,18.344l11.312,11.312l32-32c1.56-1.56,2.344-3.608,2.344-5.656
			C208,429.952,207.216,427.904,205.656,426.344z M96,456H16v-48h80V456z"/>
	</g>
</g>
<g>
	<g>
		<path d="M472,392H216c-4.416,0-8,3.576-8,8v32v32c0,4.424,3.584,8,8,8h224c22.056,0,40-17.944,40-40v-32
			C480,395.576,476.416,392,472,392z M464,432c0,13.232-10.768,24-24,24H224v-48h240V432z"/>
	</g>
</g>
<g>
</g>
<g>
</g>
<g>
</g>
<g>
</g>
<g>
</g>
<g>
</g>
<g>
</g>
<g>
</g>
<g>
</g>
<g>
</g>
<g>
</g>
<g>
</g>
<g>
</g>
<g>
</g>
<g>
</g>
</svg>
