<?xml version="1.0" encoding="iso-8859-1"?>
<!-- Generator: Adobe Illustrator 19.0.0, SVG Export Plug-In . SVG Version: 6.00 Build 0)  -->
<svg version="1.1" id="Capa_1" xmlns="http://www.w3.org/2000/svg" xmlns:xlink="http://www.w3.org/1999/xlink" x="0px" y="0px"
	 viewBox="0 0 480 480" style="enable-background:new 0 0 480 480;" xml:space="preserve">
<g>
	<g>
		<path d="M417.64,185.608C421.744,198.544,433.72,208,448,208c17.648,0,32-14.352,32-32s-14.352-32-32-32
			c-15.392,0-28.272,10.928-31.312,25.432L360,182.032v-34.72l83.744-83.744C445.152,63.76,446.544,64,448,64
			c17.648,0,32-14.352,32-32S465.648,0,448,0s-32,14.352-32,32c0,10.016,4.72,18.864,11.952,24.736l-71.312,71.312
			C350.456,113.92,336.384,104,320,104h-18.712l46.104-40.344C363.432,61.936,376,48.48,376,32c0-17.648-14.352-32-32-32
			s-32,14.352-32,32c0,11.744,6.424,21.912,15.872,27.48L277,104h-29V62.864c13.768-3.576,24-16,24-30.864c0-17.648-14.352-32-32-32
			s-32,14.352-32,32c0,14.864,10.232,27.288,24,30.864V104h-29l-50.88-44.52C161.576,53.912,168,43.744,168,32
			c0-17.648-14.352-32-32-32s-32,14.352-32,32c0,16.48,12.568,29.936,28.608,31.656L178.712,104H160
			c-16.384,0-30.456,9.92-36.64,24.048L52.048,56.736C59.28,50.864,64,42.016,64,32C64,14.352,49.648,0,32,0S0,14.352,0,32
			s14.352,32,32,32c1.456,0,2.848-0.24,4.256-0.432L120,147.312v34.712l-56.688-12.6C60.272,154.928,47.392,144,32,144
			c-17.648,0-32,14.352-32,32s14.352,32,32,32c14.28,0,26.256-9.456,30.36-22.392L120,198.416V264H62.864
			C59.288,250.24,46.872,240,32,240c-17.648,0-32,14.352-32,32s14.352,32,32,32c14.872,0,27.288-10.24,30.864-24H120v120
			c0,22.056,17.944,40,40,40h40v40h16v-40h96c3.232,0,6.16-1.952,7.392-4.936c1.24-2.992,0.552-6.432-1.736-8.72L296,404.688V360
			c0-2.12-0.84-4.16-2.344-5.656L266.6,327.296c-0.016-0.016-0.032-0.04-0.048-0.064l-6.272-6.256
			c-2.76-2.768-4.28-6.44-4.28-10.344c0-8.072,6.56-14.632,14.624-14.632c3.848,0,7.616,1.56,10.344,4.288l65.376,65.368
			c2.288,2.296,5.728,2.976,8.72,1.736c2.992-1.24,4.936-4.16,4.936-7.392v-44.688l24,24V480h16V336c0-2.12-0.84-4.16-2.344-5.656
			L360,292.688V280h57.136c3.576,13.76,15.992,24,30.864,24c17.648,0,32-14.352,32-32s-14.352-32-32-32
			c-14.872,0-27.288,10.24-30.864,24H360v-65.584L417.64,185.608z M448,160c8.824,0,16,7.176,16,16c0,8.824-7.176,16-16,16
			c-8.824,0-16-7.176-16-16C432,167.176,439.176,160,448,160z M448,16c8.824,0,16,7.176,16,16s-7.176,16-16,16
			c-8.824,0-16-7.176-16-16S439.176,16,448,16z M344,16c8.824,0,16,7.176,16,16s-7.176,16-16,16c-8.824,0-16-7.176-16-16
			S335.176,16,344,16z M136,48c-8.824,0-16-7.176-16-16s7.176-16,16-16c8.824,0,16,7.176,16,16S144.824,48,136,48z M32,48
			c-8.824,0-16-7.176-16-16s7.176-16,16-16s16,7.176,16,16S40.824,48,32,48z M32,192c-8.824,0-16-7.176-16-16
			c0-8.824,7.176-16,16-16s16,7.176,16,16C48,184.824,40.824,192,32,192z M32,288c-8.824,0-16-7.176-16-16c0-8.824,7.176-16,16-16
			s16,7.176,16,16C48,280.824,40.824,288,32,288z M224,32c0-8.824,7.176-16,16-16c8.824,0,16,7.176,16,16s-7.176,16-16,16
			C231.176,48,224,40.824,224,32z M292.688,424H208h-48c-13.232,0-24-10.768-24-24v-8h144v16c0,2.12,0.84,4.16,2.344,5.656
			L292.688,424z M296.768,293.456l-4.488-4.48c-5.784-5.792-13.464-8.976-21.656-8.976C253.744,280,240,293.736,240,310.632
			c0,1.848,0.216,3.656,0.528,5.432c0.096,0.536,0.232,1.048,0.36,1.576c0.304,1.288,0.68,2.536,1.144,3.768
			c0.192,0.512,0.376,1.024,0.592,1.52c0.664,1.512,1.432,2.968,2.336,4.36c0.08,0.12,0.136,0.248,0.216,0.368
			c0.024,0.04,0.048,0.088,0.072,0.128C243.504,327.928,241.752,328,240,328c-35.288,0-64-28.712-64-64c0-35.288,28.712-64,64-64
			c35.288,0,64,28.712,64,64C304,274.352,301.52,284.376,296.768,293.456z M344,296v44.688l-35.512-35.504
			C316.032,292.728,320,278.632,320,264c0-44.112-35.888-80-80-80s-80,35.888-80,80s35.888,80,80,80
			c6.184,0,12.304-0.928,18.336-2.352L280,363.312V376H136V168h208V296z M344,152H136v-8c0-13.232,10.768-24,24-24h160
			c13.232,0,24,10.768,24,24V152z M448,256c8.824,0,16,7.176,16,16c0,8.824-7.176,16-16,16c-8.824,0-16-7.176-16-16
			C432,263.176,439.176,256,448,256z"/>
	</g>
</g>
<g>
	<g>
		<path d="M270.344,226.344L224,272.688l-18.344-18.344l-11.312,11.312l24,24c1.56,1.56,3.608,2.344,5.656,2.344
			c2.048,0,4.096-0.784,5.656-2.344l52-52L270.344,226.344z"/>
	</g>
</g>
<g>
	<g>
		<rect x="152" y="344" width="16" height="16"/>
	</g>
</g>
<g>
	<g>
		<rect x="152" y="312" width="16" height="16"/>
	</g>
</g>
<g>
	<g>
		<rect x="184" y="344" width="16" height="16"/>
	</g>
</g>
<g>
</g>
<g>
</g>
<g>
</g>
<g>
</g>
<g>
</g>
<g>
</g>
<g>
</g>
<g>
</g>
<g>
</g>
<g>
</g>
<g>
</g>
<g>
</g>
<g>
</g>
<g>
</g>
<g>
</g>
</svg>
